<svg width="1024" height="256" viewBox="0 0 1024 256" fill="none" xmlns="http://www.w3.org/2000/svg">
<path d="M61.2342 201L85.8903 84.5882H39L45.6042 54H174.607L166.944 84.5882H121.113L96.6773 201H61.2342Z" fill="#0586FF"/>
<path d="M125.337 201L149.422 84.5882H166.944L174.608 54H221.319C229.978 54 237.976 54.8803 245.314 56.6408C252.652 58.4013 258.523 61.5555 262.926 66.1032C267.475 70.6512 269.75 77.1797 269.75 85.6885C269.75 93.9042 267.622 101.313 263.366 107.915C259.256 114.37 253.313 119.358 245.535 122.879C250.671 125.226 254.78 128.674 257.862 133.221C260.944 137.623 262.485 143.418 262.485 150.606C262.485 162.343 259.257 171.952 252.799 179.434C246.488 186.769 238.05 192.198 227.483 195.719C216.916 199.24 205.322 201 192.7 201H125.337ZM179.712 112.096H210.312C216.769 112.096 222.053 110.556 226.162 107.475C230.418 104.247 232.546 99.9192 232.546 94.491C232.546 90.8232 231.225 87.8892 228.584 85.6885C225.942 83.488 221.906 82.3877 216.476 82.3877H186.096L179.712 112.096ZM166.944 172.172H199.305C207.083 172.172 213.394 170.265 218.237 166.451C223.227 162.49 225.722 157.721 225.722 152.147C225.722 147.892 223.887 144.665 220.218 142.464C216.549 140.117 211.486 138.943 205.028 138.943H173.988L166.944 172.172Z" fill="#323940"/>
<path d="M166.869 84.5H149.5L156.076 54H174.5L166.869 84.5Z" fill="#6A7885"/>
<path d="M373.085 184V93.012H336.105V69.104H437.069V93.012H400.089V184H373.085ZM475.812 186.064C466.639 186.064 458.498 184.287 451.388 180.732C444.394 177.063 438.89 171.845 434.876 165.08C430.978 158.315 429.028 150.231 429.028 140.828C429.028 131.769 431.092 123.915 435.22 117.264C439.463 110.613 445.024 105.453 451.904 101.784C458.899 98.1147 466.524 96.28 474.78 96.28C484.183 96.28 492.21 98.516 498.86 102.988C505.626 107.345 510.728 113.423 514.168 121.22C517.608 128.903 519.042 137.789 518.468 147.88H455.344C455.803 153.843 457.982 158.315 461.88 161.296C465.894 164.277 470.308 165.768 475.124 165.768C479.138 165.768 482.578 165.195 485.444 164.048C488.426 162.787 490.719 161.239 492.324 159.404L513.136 166.972C508.664 173.508 503.046 178.324 496.28 181.42C489.63 184.516 482.807 186.064 475.812 186.064ZM455.344 132.4H494.216C494.102 126.896 492.21 122.768 488.54 120.016C484.871 117.149 480.514 115.716 475.468 115.716C470.538 115.716 466.123 117.035 462.224 119.672C458.44 122.309 456.147 126.552 455.344 132.4ZM530.922 184V98.688H551.562L556.206 114.34C558.844 107.46 562.456 102.644 567.042 99.892C571.629 97.14 577.19 95.936 583.726 96.28V122.424C582.35 122.195 581.146 122.08 580.114 122.08C579.082 121.965 577.936 121.908 576.674 121.908C570.368 121.908 565.494 123.399 562.054 126.38C558.729 129.361 557.066 134.235 557.066 141V184H530.922ZM647.034 186.064C642.448 186.064 637.632 184.975 632.586 182.796C627.656 180.617 623.814 177.177 621.062 172.476L617.794 184H594.918V69.104H621.062V110.384C623.814 105.683 627.656 102.185 632.586 99.892C637.632 97.484 642.448 96.28 647.034 96.28C654.373 96.28 660.852 98.0573 666.47 101.612C672.204 105.167 676.676 110.269 679.886 116.92C683.097 123.456 684.702 131.368 684.702 140.656C684.702 149.944 683.097 158.028 679.886 164.908C676.676 171.673 672.204 176.891 666.47 180.56C660.852 184.229 654.373 186.064 647.034 186.064ZM638.778 165.768C643.824 165.768 648.181 163.589 651.85 159.232C655.634 154.76 657.526 148.568 657.526 140.656C657.526 132.859 655.634 126.896 651.85 122.768C648.181 118.64 643.824 116.576 638.778 116.576C633.618 116.576 629.146 118.525 625.362 122.424C621.693 126.208 619.858 132.457 619.858 141.172C619.858 150.001 621.693 156.308 625.362 160.092C629.146 163.876 633.618 165.768 638.778 165.768ZM722.319 84.584C718.077 84.584 714.407 83.0933 711.311 80.112C708.33 77.016 706.839 73.3467 706.839 69.104C706.839 64.7467 708.33 61.0773 711.311 58.096C714.407 55.1147 718.077 53.624 722.319 53.624C726.677 53.624 730.346 55.1147 733.327 58.096C736.309 61.0773 737.799 64.7467 737.799 69.104C737.799 73.3467 736.309 77.016 733.327 80.112C730.346 83.0933 726.677 84.584 722.319 84.584ZM709.075 184V118.64H692.907V98.688H735.391V184H709.075ZM781.217 186.064C773.649 186.064 767.687 184.688 763.329 181.936C759.087 179.069 756.048 174.941 754.213 169.552C752.493 164.163 751.633 157.627 751.633 149.944V98.688H777.777V146.332C777.777 154.129 778.924 159.347 781.217 161.984C783.625 164.507 786.951 165.768 791.193 165.768C796.353 165.768 800.08 164.048 802.373 160.608C804.781 157.168 805.985 151.492 805.985 143.58V98.688H832.301V184H809.597L805.985 171.96C803.463 176.203 800.309 179.643 796.525 182.28C792.856 184.803 787.753 186.064 781.217 186.064ZM849.727 184V98.688H872.603L875.871 110.04C877.82 106.829 881.031 103.733 885.503 100.752C889.975 97.7707 895.364 96.28 901.671 96.28C908.436 96.28 913.826 97.484 917.839 99.892C921.967 102.3 925.006 105.855 926.955 110.556C930.28 105.855 934.466 102.3 939.511 99.892C944.671 97.484 950.232 96.28 956.195 96.28C967.088 96.28 974.599 99.376 978.727 105.568C982.855 111.645 984.919 120.475 984.919 132.056V184H958.775V138.592C958.775 134.579 958.546 130.909 958.087 127.584C957.628 124.259 956.482 121.621 954.647 119.672C952.812 117.608 949.774 116.576 945.531 116.576C940.256 116.576 936.415 118.468 934.007 122.252C931.599 125.921 930.395 131.483 930.395 138.936V184H904.079V138.592C904.079 134.579 903.85 130.909 903.391 127.584C903.047 124.259 901.958 121.621 900.123 119.672C898.403 117.608 895.479 116.576 891.351 116.576C885.962 116.576 882.006 118.525 879.483 122.424C877.075 126.323 875.871 131.999 875.871 139.452V184H849.727Z" fill="#323940"/>
</svg>
