<svg width="1024" height="1024" viewBox="0 0 1024 1024" fill="none" xmlns="http://www.w3.org/2000/svg">
<path d="M139.937 806L238.561 340.353H51L77.417 218H593.43L562.775 340.353H379.452L281.709 806H139.937Z" fill="#0586FF"/>
<path d="M396.348 806L492.687 340.353H562.775L593.43 218H780.275C814.911 218 846.905 221.521 876.257 228.563C905.609 235.605 929.091 248.222 946.702 266.413C964.901 284.605 974 310.719 974 344.754C974 377.617 965.488 407.252 948.464 433.659C932.026 459.479 908.251 479.431 877.138 493.515C897.684 502.904 914.121 516.695 926.449 534.886C938.777 552.491 944.941 575.671 944.941 604.425C944.941 651.371 932.026 689.808 906.196 719.737C880.953 749.078 847.198 770.79 804.931 784.874C762.664 798.958 716.287 806 665.801 806H396.348ZM613.848 450.383H736.247C762.077 450.383 783.21 444.222 799.648 431.898C816.672 418.988 825.184 401.677 825.184 379.964C825.184 365.293 819.901 353.557 809.334 344.754C798.767 335.952 782.623 331.551 760.903 331.551H639.384L613.848 450.383ZM562.775 690.689H692.218C723.332 690.689 748.575 683.06 767.947 667.802C787.907 651.958 797.887 632.886 797.887 610.587C797.887 593.569 790.548 580.659 775.872 571.856C761.196 562.467 740.943 557.772 715.113 557.772H590.953L562.775 690.689Z" fill="#323940"/>
<path d="M562.475 340L493 340L519.305 218H593L562.475 340Z" fill="#6A7885"/>
</svg>
